<svg height="512" viewBox="0 0 64 64" width="512" xmlns="http://www.w3.org/2000/svg">
    <g data-name="Filled outline">
        <path d="M22 53h32v8H22z" fill="#4f83d1"/>
        <path d="M54 53H22l4-4h24z" fill="#195c85"/>
        <path d="M46 49h-4l-4-13h4zM30 49h4l4-13h-4z" fill="#91cdf2"/>
        <path d="M40 5L12 33l8 2a4.2 4.2 0 004-1l17-17a4.2 4.2 0 001-4z" fill="#4f83d1"/>
        <path d="M10 7l3.999-3.999 3 3-4 4z" fill="#e97424"/>
        <path d="M20.997 18l4-3.999 3 3-4 4z" fill="#91cdf2"/>
        <path d="M21 12l-2 2 2 4 4-4z" fill="#f9bb4b"/>
        <path d="M50.707 48.293A1 1 0 0050 48h-3.261l-.923-3H47v-2h-1.8l-.615-2H46v-2h-2.03L43 35.849V29a1 1 0 00-.293-.707l-.622-.622.895-4.471a.99.99 0 00-.051-.567l-1.756-4.388.534-.534a5.176 5.176 0 001.263-4.949l-2-8a1 1 0 00-1.677-.465l-6.544 6.544-15.2-5.7-2.842-2.848a1 1 0 00-1.414 0l-4 4a1 1 0 000 1.414l2.846 2.846 5.7 15.2-6.544 6.544a1 1 0 00.465 1.677l7.978 2a5.241 5.241 0 004.282-.7L27.4 37.8a1 1 0 00.971.129l4.237-1.7.224.16L32.03 39H30v2h1.415l-.615 2H29v2h1.184l-.923 3H26a1 1 0 00-.707.293l-4 4A1 1 0 0021 53v8a1 1 0 001 1h32a1 1 0 001-1v-8a1 1 0 00-.294-.708zM42.493 41l2.153 7h-1.908l-2.154-7zm-6.216 4h3.446l.923 3h-5.292zm-.246-6h-1.908l.615-2h1.908zm.862 4l.615-2h.984l.615 2zm4.369-6l.615 2h-1.908l-.615-2zm-2.3-7.274l-.94-3.29L41 29.414v4.172L38.414 31l.293-.293a1 1 0 00.255-.981zM36.914 22.5l2.721-2.721 1.326 3.321-.575 2.876zm2.544-15.544l1.577 6.308a3.2 3.2 0 01-.742 3.029l-3.97 3.97-.976-2.2 3.36-3.36a1 1 0 00.279-.871l-.915-5.493zM25 15.414L26.586 17 24 19.586 22.414 18zm-3.726.9L20.217 14.2l.98-.98 2.115 1.057zm4.726 4.1l2.086 2.086-3.986 3.986-3.209-.963zm3.5 3.5l1.586 1.586-2.371 2.37-2.439-.731zm1.414-1.414l2.917-2.917.976 2.2-2.307 2.303zm4.369 1.631l1.594 5.578-1.244 1.244-6.455-.717zm1.05-14.05l.6 3.576-2.452 2.452-1.284-2.888zm-3.372 7.544L29.5 21.086 27.414 19l4.263-4.263zM11.414 7L14 4.414 15.586 6 13 8.586zm2.748 3.252l3.09-3.09L31.2 12.391 28 15.586l-2.293-2.293a1.837 1.837 0 00-.26-.188l-4-2a1 1 0 00-1.154.188l-2 2a1 1 0 00-.188 1.154l2 4a1.837 1.837 0 00.188.26L22.586 21l-3.195 3.2zm5.123 16.878l3.209.962-1.837 1.837-3.576-.6zm4.008 6.163a3.221 3.221 0 01-3.051.737l-6.286-1.572 1.387-1.387 5.493.915a.994.994 0 00.871-.279l2.962-2.962 2.44.732zm4.857 2.57l-2.628-1.971 1.586-1.586 3.567 2.547zm2.555-3.445l5.185.576A1.014 1.014 0 0036 33a1 1 0 00.707-.293l.293-.293L39.586 35H34.32zM33.507 41h1.909l-2.154 7h-1.908zm-7.093 9h23.172l2 2H24.414zM53 56h-9v2h9v2H23v-6h30z"/>
        <path d="M25 56h2v2h-2z"/>
    </g>
</svg>
