<svg height="512" viewBox="0 0 503.799 503.799" width="512" xmlns="http://www.w3.org/2000/svg">
    <path d="M295.027 269.029l-59.744-59.744c-7.81-7.81-20.474-7.81-28.284 0l-82.613 82.613 88.028 88.028 82.613-82.613c7.81-7.81 7.81-20.473 0-28.284z" fill="#f2efef"/>
    <path d="M124.386 291.898l-.175.175c-24.308 24.308-24.308 63.72 0 88.028 24.308 24.308 63.72 24.308 88.028 0l.175-.175z" fill="#8aa8bd"/>
    <path d="M282.561 186.832l-34.866 34.866 35.56 35.56 35.089-35.089" fill="#f2efef"/>
    <circle cx="387.067" cy="113.926" fill="#ffc144" r="23.24"/>
    <path d="M297.147 98.74c-29.941 29.941-29.941 78.484 0 108.425s78.484 29.941 108.425 0z" fill="#80b6ff"/>
    <circle cx="224.38" cy="279.933" fill="#b9f4fb" transform="rotate(-45 224.346 279.995)" r="20.893"/>
    <path d="M276.464 315.822l28.214 28.214-31.325 31.326-28.215-28.214zM160.217 199.601l28.214 28.214-31.325 31.326-28.215-28.214z" fill="#e8e7e9"/>
    <path d="M87.592 243.971l-71.235-71.235c-7.81-7.81-7.81-20.474 0-28.284l57.337-57.337c7.81-7.81 20.474-7.81 28.284 0l71.235 71.235c7.81 7.81 7.81 20.474 0 28.284l-57.337 57.337c-7.81 7.81-20.474 7.81-28.284 0zM331.576 487.956l-71.235-71.235c-7.81-7.81-7.81-20.474 0-28.284l57.337-57.337c7.81-7.81 20.474-7.81 28.284 0l71.235 71.235c7.81 7.81 7.81 20.474 0 28.284l-57.337 57.337c-7.81 7.81-20.473 7.81-28.284 0z" fill="#f2efef"/>
    <path d="M202.526 301.778c6.023 6.023 13.933 9.033 21.845 9.033 7.91 0 15.823-3.012 21.845-9.033 12.045-12.046 12.045-31.645 0-43.69-12.046-12.045-31.644-12.045-43.69 0-12.045 12.045-12.045 31.644 0 43.69zm14.143-29.548c2.124-2.124 4.913-3.186 7.703-3.186s5.579 1.062 7.703 3.186c4.248 4.247 4.248 11.158 0 15.405-4.248 4.248-11.16 4.248-15.406 0-4.248-4.247-4.248-11.158 0-15.405zM83.811 135.676c-2.095-5.025-8.022-7.501-13.06-5.41-5.033 2.089-7.49 8.025-5.41 13.061 2.079 5.034 8.029 7.498 13.06 5.41 5.05-2.095 7.478-8.014 5.41-13.061zM123.411 198.346c5.446 0 10-4.559 10-10 0-5.44-4.55-10.004-9.995-10.004-5.441 0-10.005 4.56-10.005 10.004.001 5.438 4.563 10 10 10zM464.481 29.487c3.395 8.142 15.365 8.036 18.558-.228 3.359-8.69-6.485-16.926-14.46-12.173-4.197 2.502-5.974 7.894-4.098 12.401z"/>
    <path d="M353.026 324.027c-11.697-11.695-30.729-11.694-42.427 0l-5.933 5.933-14.075-14.075 11.499-11.499c11.696-11.697 11.696-30.73 0-42.428l-4.7-4.7 23.241-23.241a86.624 86.624 0 0030.721 5.604c23.15 0 44.914-9.016 61.284-25.385 3.905-3.905 3.905-10.237 0-14.143l-23.097-23.097 3.315-30.346c15.575-2.751 27.446-16.372 27.446-32.724 0-18.328-14.911-33.239-33.24-33.239-16.389 0-30.037 11.926-32.743 27.553l-29.558 3.976-20.549-20.547c-3.855-3.854-10.287-3.854-14.143 0-25.071 25.072-31.522 61.804-19.39 92.896l-22.99 22.991-5.341-5.341c-11.546-11.545-30.877-11.55-42.426 0l-11.499 11.499-14.076-14.076 5.933-5.933c11.697-11.697 11.697-30.729 0-42.427l-71.235-71.235c-11.697-11.697-30.729-11.697-42.427 0L9.277 137.381c-11.697 11.697-11.697 30.729 0 42.427l71.235 71.235c11.529 11.529 30.895 11.532 42.427 0l5.932-5.932 14.076 14.076-25.641 25.641-.002.003-.008.007-.165.166c-13.646 13.646-21.16 31.787-21.16 51.085s7.515 37.44 21.16 51.086c14.084 14.084 32.58 21.124 51.082 21.124 18.501 0 37.009-7.045 51.099-21.134l.175-.176a.018.018 0 00.004-.005l25.627-25.627 14.076 14.076-5.933 5.933c-11.697 11.697-11.697 30.729 0 42.427l71.235 71.235c5.849 5.849 13.531 8.772 21.213 8.772s15.365-2.924 21.213-8.772l57.337-57.338c11.697-11.697 11.697-30.729 0-42.427zm11.471-172.072l7.871-8.222c.216.107.433.21.651.313l-1.618 14.813zm22.562-51.268c7.3 0 13.24 5.939 13.24 13.239 0 7.301-5.939 13.24-13.24 13.24s-13.24-5.939-13.24-13.24c0-7.299 5.94-13.239 13.24-13.239zm-30.076 27.375c.294.624.606 1.238.937 1.841l-7.569 7.907-7.805-7.805zm-59.315-14.65l93.23 93.229c-19.43 14.375-45.979 16.978-67.859 6.703-.144-.077-.292-.141-.439-.211a66.74 66.74 0 01-18.39-13.04c-23.592-23.59-25.773-60.608-6.542-86.681zm-17.09 89.537a87.3 87.3 0 0021.52 21.316l-18.85 18.851-21.418-21.418zm7.37 73.151s3.898 10.243 0 14.143l-75.542 75.541-73.886-73.886 75.542-75.541c3.859-3.859 10.283-3.858 14.142 0zm-179.151-39.2c-3.898 3.899-10.243 3.901-14.142 0L23.42 165.665c-3.899-3.898-3.899-10.243 0-14.142l57.337-57.338c3.898-3.9 10.243-3.9 14.142 0l71.235 71.235c3.899 3.898 3.899 10.243 0 14.142zm48.293 8.144l-14.076-14.076 17.188-17.188 14.076 14.076-6.736 6.736zm-25.817 127.987c-9.868-9.868-15.302-22.988-15.302-36.943 0-10.644 3.162-20.803 9.046-29.408l72.602 72.602c-20.325 13.846-48.331 11.764-66.346-6.251zm127.987-25.816l17.189-17.188 14.076 14.075-17.188 17.188zm65.481-9.045c3.853-3.853 10.289-3.853 14.143 0l71.235 71.235c3.899 3.898 3.899 10.243 0 14.142l-57.337 57.338c-3.898 3.9-10.243 3.9-14.142 0l-71.235-71.235c-3.899-3.898-3.899-10.243 0-14.142z"/>
    <path d="M327.791 379.667c-2.066-5.043-8.037-7.49-13.06-5.41-5.027 2.081-7.495 8.036-5.4 13.061 2.097 5.03 8.007 7.493 13.05 5.41 5.027-2.077 7.505-8.038 5.41-13.061zM376.631 428.507c-2.066-5.036-8.038-7.5-13.06-5.41-5.029 2.093-7.497 8.021-5.41 13.061 2.085 5.034 8.03 7.486 13.06 5.41 5.029-2.077 7.502-8.037 5.41-13.061zM452.749 47.934c-4.034-3.771-10.362-3.56-14.134.476l-14.348 15.348c-8.63 9.23 5.735 23.154 14.609 13.658l14.349-15.348c3.771-4.034 3.559-10.362-.476-14.134zM502.475 81.168c-2.187-5.071-8.069-7.412-13.142-5.224l-31.759 13.693c-11.62 5.01-3.979 23.497 7.919 18.365l31.759-13.693c5.071-2.186 7.41-8.07 5.223-13.141zM400.297 50.725c5.012 2.163 10.983-.215 13.142-5.224l13.693-31.759c5.085-11.79-13.277-19.728-18.365-7.918l-13.693 31.759c-2.187 5.072.151 10.956 5.223 13.142z"/>
</svg>
