<svg xmlns="http://www.w3.org/2000/svg" viewBox="0 0 504.159 504.159">
    <path d="M360.576 190.665c-7.704 7.704-20.196 7.704-27.9 0l-19.18-19.204c-7.704-7.688-7.704-20.181-.016-27.892l13.525-13.509c7.712-7.712 20.196-7.712 27.908 0l19.196 19.18c7.68 7.704 7.68 20.204 0 27.892l-13.533 13.533z" fill="#99b5b5"/>
    <path d="M360.576 190.665l12.902-12.895c-.567-.733-1.111-1.481-1.788-2.15l-43.158-43.158c-.67-.662-1.426-1.213-2.143-1.772l-12.902 12.879c-.291.291-.496.654-.772.961l46.899 46.907c.324-.244.663-.465.962-.772z" fill="#88a3a2"/>
    <g fill="#205f72">
        <path d="M26.587 482.796a3.706 3.706 0 01-5.238.008 3.702 3.702 0 01.008-5.246l117.421-117.406a3.685 3.685 0 015.238 0c1.449 1.426 1.441 3.773 0 5.207L26.587 482.796zM293.434 333.245c-2.528 2.521-6.624 2.521-9.169.008L170.9 219.888c-2.513-2.536-2.513-6.648 0-9.161 2.521-2.536 6.632-2.536 9.177-.008l113.357 113.388c2.544 2.514 2.536 6.602 0 9.138z"/>
    </g>
    <path d="M345.539 229.679c-7.711 7.712-20.212 7.712-27.924.016l-43.158-43.166c-7.704-7.712-7.712-20.212 0-27.908l19.204-19.188c7.704-7.712 20.181-7.704 27.908 0l43.142 43.158c7.727 7.712 7.727 20.189.016 27.916l-19.188 19.172z" fill="#1f3954"/>
    <path d="M293.662 139.433c7.704-7.712 20.181-7.704 27.908 0l43.142 43.158c7.727 7.712 7.727 20.189.016 27.916l-19.188 19.18c-7.711 7.712-20.212 7.712-27.924.016" fill="#0e253a"/>
    <path d="M293.662 139.433c7.704-7.712 20.181-7.704 27.908 0l43.142 43.158c7.727 7.712 7.727 20.189.016 27.916" fill="#18456d"/>
    <path d="M204.85 385.658c-10.169 10.145-26.663 10.169-36.84-.016l-49.483-49.491c-10.201-10.193-10.185-26.671-.016-36.856l99.383-99.367c10.153-10.185 26.663-10.177 57.769-20.921l49.491 49.491c-10.744 31.106-10.768 47.592-20.921 57.746l-99.383 99.414z" fill="#738e8c"/>
    <path d="M217.894 199.928c10.153-10.185 26.663-10.177 57.769-20.921l49.491 49.491c-10.744 31.106-10.768 47.592-20.921 57.746l-99.383 99.415c-10.169 10.145-26.663 10.169-36.84-.016" fill="#5e7a77"/>
    <path d="M217.894 199.928c10.153-10.185 26.663-10.177 57.769-20.921l49.491 49.491c-10.744 31.106-10.768 47.592-20.921 57.746" fill="#455b58"/>
    <path d="M275.663 179.007l49.491 49.491c-10.744 31.106-10.768 47.592-20.921 57.746" fill="#324441"/>
    <path d="M270.48 180.685c.961 2.111 2.245 4.12 3.986 5.845l43.158 43.166c1.741 1.717 3.749 3.009 5.845 3.97.583-1.741 1.063-3.356 1.694-5.167l-49.491-49.491c-1.82.621-3.443 1.118-5.192 1.677z" fill="#205f72"/>
    <path d="M176.847 399.364c-3.033 3.064-7.971 3.064-11.02 0l-61.038-61.038a7.796 7.796 0 010-11.036c3.048-3.041 7.987-3.056 11.028 0l61.03 61.038c3.08 3.049 3.049 7.988 0 11.036z" fill="#1f3954"/>
    <g fill="#99b5b5">
        <path d="M225.188 254.539c-.819.851-2.19.851-3.048 0l-17.888-17.889c-.835-.835-.835-2.198.008-3.064.843-.819 2.221-.827 3.048.016l17.881 17.881c.85.85.85 2.213-.001 3.056zM212.774 266.969c-.827.859-2.206.859-3.064.008l-17.881-17.881a2.202 2.202 0 010-3.064 2.19 2.19 0 013.072 0l17.873 17.881c.827.85.827 2.213 0 3.056zM200.336 279.406c-.827.843-2.19.843-3.056 0l-17.881-17.888c-.843-.843-.819-2.213 0-3.056a2.172 2.172 0 013.064 0l17.873 17.888c.851.835.851 2.19 0 3.056zM187.914 291.828c-.835.843-2.198.835-3.048-.008l-17.888-17.881a2.17 2.17 0 010-3.056c.835-.835 2.206-.835 3.064 0l17.873 17.888c.85.852.834 2.199-.001 3.057zM175.492 304.258a2.177 2.177 0 01-3.056 0l-17.888-17.888a2.163 2.163 0 010-3.056 2.177 2.177 0 013.056 0l17.889 17.888a2.178 2.178 0 01-.001 3.056z"/>
    </g>
    <circle cx="17.765" cy="486.412" r="17.747" fill="#349dd1"/>
    <path d="M.026 486.372c0 9.815 7.932 17.739 17.747 17.762 9.791.008 17.747-7.932 17.747-17.762" fill="#108ebf"/>
    <path d="M85.648 467.255c3.174-3.167 3.167-8.334 0-11.532l-37.242-37.211c-3.167-3.167-8.326-3.182-11.516.016-3.174 3.167-3.174 8.318 0 11.5l37.25 37.234c3.167 3.16 8.326 3.199 11.508-.007z" fill="#ea3c13"/>
    <path d="M74.132 467.255c3.167 3.159 8.334 3.198 11.516 0 3.174-3.167 3.167-8.334 0-11.532l-37.242-37.211" fill="#c63205"/>
    <path d="M104.821 448.075c3.198-3.182 3.198-8.334 0-11.532l-37.218-37.211c-3.174-3.182-8.357-3.182-11.524-.008-3.174 3.182-3.174 8.326 0 11.5l37.234 37.25a8.129 8.129 0 0011.508.001z" fill="#ea3c13"/>
    <path d="M93.313 448.075c3.174 3.182 8.342 3.182 11.508 0 3.198-3.182 3.198-8.334 0-11.532l-37.218-37.211" fill="#c63205"/>
    <path d="M124.009 428.887c3.19-3.167 3.19-8.334.024-11.532l-37.25-37.218c-3.182-3.182-8.334-3.182-11.524 0a8.127 8.127 0 000 11.5l37.234 37.25a8.14 8.14 0 0011.516 0z" fill="#ea3c13"/>
    <path d="M112.493 428.887c3.182 3.182 8.342 3.167 11.516 0 3.19-3.167 3.19-8.334.024-11.532l-37.25-37.218" fill="#c63205"/>
    <path d="M143.197 409.706c3.174-3.182 3.174-8.35.016-11.532l-37.25-37.218c-3.167-3.19-8.326-3.182-11.524-.008-3.159 3.19-3.159 8.334.016 11.532l37.234 37.211c3.159 3.198 8.318 3.198 11.508.015z" fill="#ea3c13"/>
    <path d="M131.681 409.691c3.167 3.198 8.334 3.198 11.516.016 3.174-3.182 3.174-8.35.016-11.532l-37.25-37.218" fill="#c63205"/>
    <path d="M432.958 192.421c-7.696 7.696-20.196 7.704-27.908-.008l-93.294-93.31c-7.712-7.712-7.712-20.204 0-27.916l65.402-65.41c7.712-7.704 20.181-7.704 27.892 0l93.31 93.326c7.704 7.712 7.711 20.204 0 27.9l-65.402 65.418z" fill="#0b8cdb"/>
    <path d="M430.35 195.021c-7.712 7.712-20.204 7.712-27.908 0l-93.318-93.302c-7.712-7.712-7.704-20.204 0-27.916l65.418-65.402c7.711-7.719 20.196-7.719 27.892-.008l93.326 93.326c7.712 7.688 7.712 20.189-.016 27.9l-65.394 65.402z" fill="#1f76cc"/>
    <path d="M374.542 8.401c7.711-7.719 20.196-7.719 27.892-.008l93.326 93.326c7.712 7.688 7.712 20.189-.016 27.9l-65.394 65.402c-7.712 7.712-20.204 7.712-27.908 0" fill="#085bbf"/>
    <g fill="#27d6ff">
        <circle cx="468.853" cy="112.581" r="1.843"/>
        <circle cx="462.787" cy="106.508" r="1.843"/>
        <circle cx="456.722" cy="100.364" r="1.851"/>
        <path d="M449.279 92.96a1.859 1.859 0 00-.016 2.615c.748.717 1.906.74 2.631 0 .701-.709.709-1.875 0-2.615a1.873 1.873 0 00-2.615 0zM438.085 81.774c-.748.709-.725 1.898 0 2.599.725.74 1.883.74 2.607.016.725-.717.725-1.906 0-2.631s-1.882-.724-2.607.016z"/>
        <circle cx="433.249" cy="76.977" r="1.851"/>
        <circle cx="427.184" cy="70.865" r="1.851"/>
        <path d="M419.772 63.468a1.82 1.82 0 000 2.607c.725.701 1.906.725 2.615.008a1.863 1.863 0 000-2.631c-.709-.716-1.891-.716-2.615.016z"/>
        <circle cx="409.855" cy="53.575" r="1.843"/>
        <circle cx="403.781" cy="47.47" r="1.851"/>
        <path d="M396.346 40.058c-.693.709-.693 1.883.008 2.615.725.717 1.891.717 2.647 0a1.858 1.858 0 00-.016-2.615 1.888 1.888 0 00-2.639 0z"/>
        <circle cx="391.58" cy="35.261" r="1.851"/>
        <path d="M456.47 122.38c-.717.733-.717 1.914.008 2.607a1.82 1.82 0 002.599.024 1.84 1.84 0 000-2.623c-.701-.709-1.874-.709-2.607-.008z"/>
        <circle cx="451.673" cy="117.606" r="1.851"/>
        <path d="M444.277 110.194a1.799 1.799 0 000 2.599 1.818 1.818 0 002.599 0c.725-.717.725-1.898 0-2.599a1.812 1.812 0 00-2.599 0z"/>
        <circle cx="439.472" cy="105.397" r="1.851"/>
        <path d="M426.955 92.889a1.893 1.893 0 000 2.631c.74.693 1.914.709 2.631 0 .717-.74.717-1.914 0-2.631-.717-.741-1.89-.725-2.631 0zM420.851 86.784a1.883 1.883 0 000 2.623c.733.709 1.906.717 2.631 0 .717-.748.717-1.898 0-2.623s-1.899-.725-2.631 0z"/>
        <circle cx="416.077" cy="81.987" r="1.851"/>
        <path d="M408.657 74.575a1.83 1.83 0 000 2.615c.701.733 1.883.733 2.615-.016.725-.701.725-1.883 0-2.599-.732-.717-1.914-.717-2.615 0zM397.456 63.382a1.849 1.849 0 000 2.607c.725.725 1.89.725 2.631 0 .701-.717.701-1.875 0-2.623a1.893 1.893 0 00-2.631.016z"/>
        <circle cx="392.683" cy="58.585" r="1.851"/>
        <circle cx="386.555" cy="52.48" r="1.851"/>
        <path d="M379.15 45.06a1.84 1.84 0 000 2.623 1.841 1.841 0 002.607.008c.725-.733.725-1.906 0-2.607-.708-.757-1.882-.741-2.607-.024zM445.348 133.518a1.839 1.839 0 000 2.599c.74.733 1.898.733 2.615 0a1.825 1.825 0 000-2.599c-.701-.733-1.875-.741-2.615 0z"/>
        <circle cx="440.575" cy="128.721" r="1.843"/>
        <path d="M433.139 121.285a1.856 1.856 0 000 2.631c.717.717 1.89.717 2.615 0 .725-.733.725-1.883 0-2.631-.717-.693-1.883-.693-2.615 0zM427.05 115.188c-.74.74-.74 1.898-.016 2.623a1.86 1.86 0 002.623 0 1.858 1.858 0 000-2.615c-.748-.717-1.898-.717-2.607-.008zM415.849 104.003a1.851 1.851 0 00-.008 2.615c.733.725 1.914.74 2.607 0 .74-.709.74-1.898.016-2.615a1.83 1.83 0 00-2.615 0zM409.736 97.898c-.701.74-.717 1.906 0 2.615a1.84 1.84 0 002.639-.008c.709-.701.709-1.883 0-2.607a1.875 1.875 0 00-2.639 0zM403.632 91.786c-.725.74-.725 1.906 0 2.615.725.725 1.906.74 2.615.016.74-.74.74-1.89 0-2.631-.693-.701-1.891-.701-2.615 0z"/>
        <circle cx="398.827" cy="87.005" r="1.851"/>
        <path d="M386.35 74.52c-.733.685-.733 1.867 0 2.592a1.844 1.844 0 002.615 0 1.858 1.858 0 000-2.615 1.816 1.816 0 00-2.615.023z"/>
        <circle cx="381.545" cy="69.715" r="1.851"/>
        <circle cx="375.432" cy="63.594" r="1.859"/>
        <circle cx="369.367" cy="57.498" r="1.843"/>
        <path d="M434.234 144.616a1.863 1.863 0 000 2.631 1.844 1.844 0 002.615 0c.733-.717.733-1.89 0-2.631-.709-.693-1.883-.701-2.615 0z"/>
        <circle cx="429.468" cy="139.843" r="1.851"/>
        <path d="M422.032 132.439a1.825 1.825 0 000 2.599 1.827 1.827 0 002.607 0c.717-.725.717-1.906 0-2.599a1.793 1.793 0 00-2.607 0z"/>
        <circle cx="417.259" cy="127.634" r="1.851"/>
        <circle cx="406.074" cy="116.433" r="1.851"/>
        <circle cx="399.93" cy="110.336" r="1.851"/>
        <circle cx="393.786" cy="104.224" r="1.851"/>
        <circle cx="387.728" cy="98.119" r="1.851"/>
        <path d="M375.228 85.602c-.725.748-.725 1.898 0 2.631.717.717 1.883.717 2.623-.008.709-.709.709-1.875 0-2.623-.741-.701-1.899-.708-2.623 0z"/>
        <circle cx="370.423" cy="80.821" r="1.851"/>
        <circle cx="364.318" cy="74.717" r="1.851"/>
        <circle cx="358.213" cy="68.62" r="1.843"/>
        <path d="M423.111 155.754c-.709.717-.693 1.883 0 2.599.74.733 1.89.733 2.615 0a1.825 1.825 0 000-2.599 1.846 1.846 0 00-2.615 0z"/>
        <circle cx="418.314" cy="150.957" r="1.851"/>
        <path d="M410.91 143.545a1.834 1.834 0 000 2.607c.709.725 1.891.725 2.607.008s.717-1.883 0-2.631a1.864 1.864 0 00-2.607.016z"/>
        <circle cx="406.074" cy="138.724" r="1.851"/>
        <circle cx="394.92" cy="127.547" r="1.843"/>
        <circle cx="388.807" cy="121.435" r="1.835"/>
        <path d="M381.403 114.03a1.863 1.863 0 000 2.631c.725.717 1.906.709 2.607 0 .748-.748.748-1.898 0-2.631-.701-.717-1.882-.724-2.607 0z"/>
        <circle cx="376.614" cy="109.249" r="1.851"/>
        <path d="M364.113 96.74a1.825 1.825 0 000 2.599c.717.74 1.883.74 2.599 0 .733-.725.733-1.89.016-2.599a1.824 1.824 0 00-2.615 0z"/>
        <circle cx="359.285" cy="91.943" r="1.851"/>
        <path d="M351.88 84.515a1.863 1.863 0 00.016 2.631 1.844 1.844 0 002.615 0 1.844 1.844 0 000-2.615c-.717-.724-1.89-.709-2.631-.016zM345.792 78.419c-.748.74-.748 1.89-.008 2.615.733.74 1.906.74 2.615 0 .725-.725.725-1.89 0-2.615s-1.883-.725-2.607 0z"/>
        <circle cx="413.305" cy="168.176" r="1.851"/>
        <path d="M405.892 160.756c-.725.74-.725 1.906 0 2.615.725.748 1.89.748 2.615.016.725-.74.725-1.89 0-2.647a1.86 1.86 0 00-2.615.016z"/>
        <circle cx="401.111" cy="155.975" r="1.843"/>
        <path d="M393.691 148.555c-.717.709-.717 1.906 0 2.599.717.74 1.883.74 2.615.016.717-.709.717-1.89 0-2.631-.732-.717-1.906-.717-2.615.016z"/>
        <circle cx="383.782" cy="138.646" r="1.859"/>
        <path d="M376.378 131.265c-.733.709-.733 1.883.008 2.615a1.873 1.873 0 002.615 0c.733-.756.733-1.906 0-2.623a1.846 1.846 0 00-2.623.008z"/>
        <circle cx="371.588" cy="126.468" r="1.851"/>
        <circle cx="365.484" cy="120.363" r="1.835"/>
        <path d="M352.991 107.855a1.844 1.844 0 000 2.615 1.849 1.849 0 002.607 0c.733-.717.733-1.89 0-2.631-.724-.693-1.89-.709-2.607.016z"/>
        <circle cx="348.178" cy="103.058" r="1.851"/>
        <circle cx="342.089" cy="96.953" r="1.851"/>
        <circle cx="335.969" cy="90.833" r="1.843"/>
    </g>
    <path d="M180.51 214.934c23.938-24.056 23.954-62.897.008-86.867-23.977-23.906-62.858-23.977-86.819 0-23.985 23.969-23.985 62.874.016 86.875 23.945 23.93 62.778 24.008 86.795-.008z" fill="#349dd1"/>
    <path d="M180.518 128.067c-23.977-23.906-62.858-23.977-86.819 0" fill="#41c0f2"/>
    <path d="M93.714 214.942c23.946 23.93 62.787 24.009 86.804-.008 23.938-24.056 23.954-62.897.008-86.867" fill="#0b8cdb"/>
    <path d="M75.723 171.485c-.016 33.902 27.459 61.385 61.416 61.416 33.879.016 61.385-27.443 61.385-61.416" fill="#108ebf"/>
    <path d="M198.477 169.366h-61.345l-43.41 44.489c4.12 4.128 8.83 8.2 13.989 11.004.047.039.102.331.165.362 1.583.859 3.23 1.788 4.939 2.513.15.063.307.228.473.291 1.623.693 3.3 1.315 4.994 1.851.228.079.465.197.677.26 1.757.536 3.529 1 5.348 1.378.165.047.331.095.504.134a61.222 61.222 0 0012.327 1.245c2.064.016 4.12-.087 6.136-.291.512-.063.992-.165 1.481-.213 1.489-.189 2.97-.386 4.419-.67.882-.181 1.741-.433 2.607-.638 1.071-.26 2.135-.504 3.19-.819.945-.291 1.89-.662 2.828-1.008.922-.331 1.875-.63 2.773-1.008.992-.402 1.953-.882 2.914-1.347.851-.402 1.686-.772 2.497-1.197 1.063-.567 2.08-1.221 3.119-1.843.662-.417 1.339-.788 2.001-1.205a62.27 62.27 0 003.978-2.938c.26-.205.551-.394.819-.599 1.575-1.308 3.119-3.749 4.6-5.238 11.983-12.021 17.962-28.759 17.977-44.513z" fill="#085bbf"/>
    <path d="M289.212 323.643c24.072-23.954 62.889-23.954 86.867-.008 23.906 23.969 23.969 62.858 0 86.812-23.977 23.993-62.874 23.993-86.867 0-23.938-23.954-24.009-62.803 0-86.804z" fill="#349dd1"/>
    <path d="M376.078 323.635c23.906 23.969 23.969 62.858 0 86.812" fill="#41c0f2"/>
    <path d="M289.212 410.447c-23.938-23.954-24.009-62.811 0-86.812 24.072-23.954 62.889-23.954 86.867-.008" fill="#0b8cdb"/>
    <path d="M332.661 428.438c-33.902 0-61.385-27.467-61.416-61.424-.016-33.879 27.459-61.393 61.416-61.393" fill="#108ebf"/>
    <path d="M334.787 305.684v61.338l-44.489 43.402c-4.112-4.112-8.184-8.83-11.004-13.982-.032-.047-.315-.095-.347-.165-.874-1.591-1.804-3.23-2.521-4.923-.063-.165-.221-.323-.276-.488a55.35 55.35 0 01-1.875-4.986c-.063-.236-.173-.473-.26-.685a66.425 66.425 0 01-1.363-5.348c-.047-.173-.102-.339-.15-.52a62.075 62.075 0 01-1.245-12.312c0-2.072.11-4.127.307-6.144.047-.504.15-.977.197-1.465.197-1.497.402-2.977.693-4.427.165-.866.417-1.733.622-2.591.252-1.071.504-2.143.819-3.198.284-.953.646-1.898 1-2.836.323-.922.622-1.867 1.008-2.781.402-.977.882-1.93 1.347-2.907.402-.827.772-1.678 1.197-2.481.567-1.063 1.213-2.103 1.843-3.135.41-.646.788-1.331 1.213-1.985.898-1.363 1.89-2.678 2.922-3.994.213-.26.394-.544.614-.811 1.308-1.599 3.757-3.119 5.222-4.608 12.042-11.974 28.773-17.968 44.526-17.968z" fill="#085bbf"/>
</svg>
